<?xml version="1.0" encoding="iso-8859-1"?>
<!-- Generator: Adobe Illustrator 19.0.0, SVG Export Plug-In . SVG Version: 6.00 Build 0)  -->
<svg version="1.1" id="Capa_1" xmlns="http://www.w3.org/2000/svg" xmlns:xlink="http://www.w3.org/1999/xlink" x="0px" y="0px"
	 viewBox="0 0 512 512" style="enable-background:new 0 0 512 512;" xml:space="preserve">
<path style="fill:#61729B;" d="M497,374.361c-8.284,0-15-6.716-15-15V281.5c0-124.876-101.029-226-226-226
	c-124.911,0-226,101.079-226,226v77.861c0,8.284-6.716,15-15,15s-15-6.716-15-15V281.5c0-141.493,114.497-256,256-256
	c141.437,0,256,114.44,256,256v77.861C512,367.646,505.284,374.361,497,374.361z"/>
<path style="fill:#57658C;" d="M256,25.5v30c124.971,0,226,101.124,226,226v77.861c0,8.284,6.716,15,15,15s15-6.716,15-15V281.5
	C512,139.94,397.437,25.5,256,25.5z"/>
<g>
	<path style="fill:#FFCF7C;" d="M70.72,455.876l-60-17.861C4.36,436.122,0,430.274,0,423.639v-64.277
		c0-6.636,4.36-12.483,10.72-14.376l60-17.861C80.339,324.26,90,331.485,90,341.5v100C90,451.501,80.351,458.744,70.72,455.876z"/>
	<path style="fill:#FFCF7C;" d="M110.621,122.199L96.459,97.67c-3.764-6.52-2.112-14.82,3.861-19.402
		c91.661-70.31,219.696-70.31,311.358,0c5.974,4.582,7.625,12.882,3.861,19.402l-14.162,24.529
		c-10.2,17.669-32.912,22.578-49.57,11.725c-58.201-37.914-133.415-37.914-191.617,0
		C143.598,144.734,120.862,139.939,110.621,122.199z"/>
</g>
<path style="fill:#FFEA8C;" d="M135,486.5H95c-19.299,0-35-15.701-35-35v-120c0-19.299,15.701-35,35-35h40c19.299,0,35,15.701,35,35
	v120C170,470.799,154.299,486.5,135,486.5z"/>
<g>
	<path style="fill:#FFB630;" d="M422,441.5v-100c0-10.02,9.665-17.239,19.28-14.376l60,17.861c6.36,1.893,10.72,7.741,10.72,14.376
		v64.277c0,6.636-4.36,12.483-10.72,14.376l-60,17.861C431.651,458.744,422,451.503,422,441.5z"/>
	<path style="fill:#FFB630;" d="M411.679,78.268C365.848,43.113,310.924,25.536,256,25.536v79.953
		c33.354,0,66.708,9.478,95.809,28.436c16.659,10.852,39.37,5.944,49.57-11.725l14.162-24.529
		C419.304,91.15,417.653,82.85,411.679,78.268z"/>
</g>
<path style="fill:#FFCF7C;" d="M417,486.5h-40c-19.299,0-35-15.701-35-35v-120c0-19.299,15.701-35,35-35h40
	c19.299,0,35,15.701,35,35v120C452,470.799,436.299,486.5,417,486.5z"/>
<g>
</g>
<g>
</g>
<g>
</g>
<g>
</g>
<g>
</g>
<g>
</g>
<g>
</g>
<g>
</g>
<g>
</g>
<g>
</g>
<g>
</g>
<g>
</g>
<g>
</g>
<g>
</g>
<g>
</g>
</svg>
